<svg width="116" height="19" viewBox="0 0 116 19" fill="none" xmlns="http://www.w3.org/2000/svg">
<path d="M17.016 0.671999C17.96 1.136 18.432 1.648 18.432 2.208C18.432 2.464 18.312 2.848 18.072 3.36L11.448 16.8C11.272 17.152 11 17.44 10.632 17.664C10.28 17.872 9.912 17.976 9.528 17.976H9.288C8.888 17.976 8.504 17.872 8.136 17.664C7.784 17.44 7.52 17.152 7.344 16.8L0.72 3.36C0.48 2.848 0.36 2.464 0.36 2.208C0.36 1.648 0.832 1.136 1.776 0.671999C2.304 0.399999 2.704 0.263999 2.976 0.263999C3.264 0.263999 3.48 0.296 3.624 0.36C3.768 0.424 3.904 0.536 4.032 0.696C4.176 0.887999 4.304 1.104 4.416 1.344C4.544 1.568 4.856 2.232 5.352 3.336C5.848 4.424 6.376 5.584 6.936 6.816C7.512 8.048 8.048 9.216 8.544 10.32C9.056 11.408 9.344 12.016 9.408 12.144L14.208 1.632C14.336 1.328 14.448 1.088 14.544 0.912C14.832 0.48 15.184 0.263999 15.6 0.263999C16.016 0.263999 16.488 0.399999 17.016 0.671999ZM24.0049 13.752H31.3969C31.7649 13.752 32.0369 13.768 32.2129 13.8C32.4049 13.816 32.6209 13.888 32.8609 14.016C33.2929 14.24 33.5089 14.864 33.5089 15.888C33.5089 17.008 33.2129 17.664 32.6209 17.856C32.3489 17.952 31.9329 18 31.3729 18H21.8689C20.7489 18 20.0929 17.696 19.9009 17.088C19.8049 16.832 19.7569 16.424 19.7569 15.864V2.52C19.7569 1.704 19.9089 1.152 20.2129 0.863999C20.5169 0.559999 21.0929 0.407999 21.9409 0.407999H31.3969C31.7649 0.407999 32.0369 0.423999 32.2129 0.456C32.4049 0.472 32.6209 0.543999 32.8609 0.671999C33.2929 0.895999 33.5089 1.52 33.5089 2.544C33.5089 3.664 33.2129 4.32 32.6209 4.512C32.3489 4.608 31.9329 4.656 31.3729 4.656H24.0049V7.08H28.7569C29.1249 7.08 29.3969 7.096 29.5729 7.128C29.7649 7.144 29.9809 7.216 30.2209 7.344C30.6529 7.568 30.8689 8.192 30.8689 9.216C30.8689 10.336 30.5649 10.992 29.9569 11.184C29.6849 11.28 29.2689 11.328 28.7089 11.328H24.0049V13.752ZM48.5256 15.024C48.7656 15.6 48.8856 16.016 48.8856 16.272C48.8856 16.88 48.3896 17.392 47.3976 17.808C46.8856 18.032 46.4696 18.144 46.1496 18.144C45.8456 18.144 45.5896 18.072 45.3816 17.928C45.1896 17.768 45.0456 17.608 44.9496 17.448C44.7896 17.144 44.1656 15.696 43.0776 13.104L42.3336 13.152H39.3096V15.864C39.3096 16.232 39.2936 16.512 39.2616 16.704C39.2456 16.88 39.1736 17.088 39.0456 17.328C38.8216 17.76 38.1976 17.976 37.1736 17.976C36.0536 17.976 35.3976 17.68 35.2056 17.088C35.1096 16.816 35.0616 16.4 35.0616 15.84V2.52C35.0616 2.152 35.0696 1.88 35.0856 1.704C35.1176 1.512 35.1976 1.296 35.3256 1.056C35.5496 0.623999 36.1736 0.407999 37.1976 0.407999H42.3816C43.7896 0.407999 45.1576 0.919999 46.4856 1.944C47.1256 2.44 47.6536 3.112 48.0696 3.96C48.4856 4.808 48.6936 5.752 48.6936 6.792C48.6936 8.6 48.0936 10.088 46.8936 11.256C47.2456 12.104 47.7896 13.36 48.5256 15.024ZM39.3096 8.904H42.3816C42.8456 8.904 43.3096 8.728 43.7736 8.376C44.2376 8.024 44.4696 7.496 44.4696 6.792C44.4696 6.088 44.2376 5.56 43.7736 5.208C43.3096 4.84 42.8296 4.656 42.3336 4.656H39.3096V8.904ZM50.2318 15.528C49.8158 15.016 49.6078 14.56 49.6078 14.16C49.6078 13.744 49.9518 13.2 50.6398 12.528C51.0398 12.144 51.4638 11.952 51.9118 11.952C52.3598 11.952 52.9838 12.352 53.7838 13.152C54.0078 13.424 54.3278 13.688 54.7438 13.944C55.1598 14.184 55.5438 14.304 55.8958 14.304C57.3838 14.304 58.1278 13.696 58.1278 12.48C58.1278 12.112 57.9198 11.808 57.5038 11.568C57.1038 11.312 56.5998 11.128 55.9918 11.016C55.3838 10.904 54.7278 10.728 54.0238 10.488C53.3198 10.232 52.6638 9.936 52.0558 9.6C51.4478 9.264 50.9358 8.736 50.5198 8.016C50.1198 7.28 49.9198 6.4 49.9198 5.376C49.9198 3.968 50.4398 2.744 51.4798 1.704C52.5358 0.647999 53.9678 0.119998 55.7758 0.119998C56.7358 0.119998 57.6078 0.247999 58.3918 0.503999C59.1918 0.743999 59.7438 0.991999 60.0478 1.248L60.6478 1.704C61.1438 2.168 61.3918 2.56 61.3918 2.88C61.3918 3.2 61.1998 3.64 60.8158 4.2C60.2718 5 59.7118 5.4 59.1358 5.4C58.7998 5.4 58.3838 5.24 57.8878 4.92C57.8398 4.888 57.7438 4.808 57.5998 4.68C57.4718 4.552 57.3518 4.448 57.2398 4.368C56.9038 4.16 56.4718 4.056 55.9438 4.056C55.4318 4.056 54.9998 4.184 54.6478 4.44C54.3118 4.68 54.1438 5.024 54.1438 5.472C54.1438 5.904 54.3438 6.256 54.7438 6.528C55.1598 6.8 55.6718 6.984 56.2798 7.08C56.8878 7.176 57.5518 7.328 58.2718 7.536C58.9918 7.728 59.6558 7.968 60.2638 8.256C60.8718 8.544 61.3758 9.048 61.7758 9.768C62.1918 10.472 62.3998 11.344 62.3998 12.384C62.3998 13.424 62.1918 14.344 61.7758 15.144C61.3598 15.928 60.8158 16.536 60.1438 16.968C58.8478 17.816 57.4638 18.24 55.9918 18.24C55.2398 18.24 54.5278 18.152 53.8558 17.976C53.1838 17.784 52.6398 17.552 52.2238 17.28C51.3758 16.768 50.7838 16.272 50.4478 15.792L50.2318 15.528ZM68.208 13.752H75.6C75.968 13.752 76.24 13.768 76.416 13.8C76.608 13.816 76.824 13.888 77.064 14.016C77.496 14.24 77.712 14.864 77.712 15.888C77.712 17.008 77.416 17.664 76.824 17.856C76.552 17.952 76.136 18 75.576 18H66.072C64.952 18 64.296 17.696 64.104 17.088C64.008 16.832 63.96 16.424 63.96 15.864V2.52C63.96 1.704 64.112 1.152 64.416 0.863999C64.72 0.559999 65.296 0.407999 66.144 0.407999H75.6C75.968 0.407999 76.24 0.423999 76.416 0.456C76.608 0.472 76.824 0.543999 77.064 0.671999C77.496 0.895999 77.712 1.52 77.712 2.544C77.712 3.664 77.416 4.32 76.824 4.512C76.552 4.608 76.136 4.656 75.576 4.656H68.208V7.08H72.96C73.328 7.08 73.6 7.096 73.776 7.128C73.968 7.144 74.184 7.216 74.424 7.344C74.856 7.568 75.072 8.192 75.072 9.216C75.072 10.336 74.768 10.992 74.16 11.184C73.888 11.28 73.472 11.328 72.912 11.328H68.208V13.752ZM79.2647 2.52C79.2647 2.152 79.2727 1.88 79.2887 1.704C79.3207 1.512 79.4007 1.296 79.5287 1.056C79.7527 0.623999 80.3767 0.407999 81.4007 0.407999C82.5207 0.407999 83.1847 0.703999 83.3927 1.296C83.4727 1.568 83.5127 1.984 83.5127 2.544V15.888C83.5127 16.272 83.4967 16.552 83.4647 16.728C83.4487 16.904 83.3767 17.112 83.2487 17.352C83.0247 17.784 82.4007 18 81.3767 18C80.2567 18 79.6007 17.696 79.4087 17.088C79.3127 16.832 79.2647 16.424 79.2647 15.864V2.52ZM97.0688 0.407999C97.4368 0.407999 97.7088 0.423999 97.8848 0.456C98.0768 0.472 98.2848 0.543999 98.5088 0.671999C98.7488 0.799999 98.9168 1.016 99.0128 1.32C99.1088 1.624 99.1568 2.032 99.1568 2.544C99.1568 3.056 99.1088 3.464 99.0128 3.768C98.9168 4.072 98.7488 4.288 98.5088 4.416C98.2688 4.528 98.0528 4.6 97.8608 4.632C97.6848 4.648 97.4048 4.656 97.0208 4.656H89.6768V7.08H94.4048C94.7888 7.08 95.0688 7.096 95.2448 7.128C95.4368 7.144 95.6528 7.216 95.8928 7.344C96.3088 7.584 96.5168 8.216 96.5168 9.24C96.5168 10.36 96.2128 11.024 95.6048 11.232C95.3488 11.312 94.9408 11.352 94.3808 11.352H89.6768V15.888C89.6768 16.272 89.6608 16.552 89.6288 16.728C89.6128 16.904 89.5408 17.112 89.4128 17.352C89.1888 17.784 88.5648 18 87.5408 18C86.4208 18 85.7648 17.696 85.5728 17.088C85.4768 16.832 85.4288 16.424 85.4288 15.864V2.52C85.4288 1.704 85.5808 1.152 85.8848 0.863999C86.1888 0.559999 86.7648 0.407999 87.6128 0.407999H97.0688ZM114.678 0.743999C115.462 1.288 115.854 1.816 115.854 2.328C115.854 2.632 115.67 3.056 115.302 3.6L110.118 11.352V15.936C110.118 16.304 110.102 16.584 110.07 16.776C110.054 16.952 109.982 17.16 109.854 17.4C109.726 17.64 109.51 17.808 109.206 17.904C108.902 18 108.494 18.048 107.982 18.048C107.47 18.048 107.062 18 106.758 17.904C106.454 17.808 106.238 17.64 106.11 17.4C105.982 17.144 105.902 16.928 105.87 16.752C105.854 16.56 105.846 16.272 105.846 15.888V11.352L100.662 3.6C100.294 3.056 100.11 2.632 100.11 2.328C100.11 1.816 100.462 1.328 101.166 0.863999C101.87 0.383999 102.374 0.144 102.678 0.144C102.982 0.144 103.222 0.207999 103.398 0.335999C103.67 0.511999 103.958 0.839999 104.262 1.32L107.982 7.272L111.702 1.32C112.006 0.839999 112.27 0.527999 112.494 0.383999C112.718 0.224 112.974 0.144 113.262 0.144C113.566 0.144 114.038 0.343999 114.678 0.743999Z" fill="white"/>
</svg>
